# xmcd CD database file
#
# Track frame offsets:
#	150
#	22197
#	59026
#	89466
#	98664
#	114582
#	129341
#	145338
#	170575
#	204722
#	217217
#	234332
#	264147
#
# Disc length: 4503 seconds
#
# Revision: 0
# Processed by: cddbd v1.5.2PL0 Copyright (c) Steve Scherf et al.
# Submitted via: CDex 1.70beta2
#
DISCID=c111950d
DTITLE=Sueddeutsche Zeitung - Jazz - Classical
DYEAR=2011
DGENRE=Jazz
TTITLE0=Rainer Brüninghaus: Strahlenspur
TTITLE1=Stan Getz with the Eddie Sauter Orchestra: I'm Late, I'm Late
TTITLE2=Dave Brubeck: Blue Rondo A La Turk
TTITLE3=Paquito D'Rivera  and Absolute Ensemble: Vals Venezolano
TTITLE4=Stefano Bollani and Orchestra Della Toscana: 3 Mouvement Scherzo
TTITLE5=The Modern Jazz Quartet: Precious Joy
TTITLE6=Oscar Peterson and Joe Pass: It Ain't Necessarily So
TTITLE7=Franco Ambrosetti: C-Jam Blues
TTITLE8=Christian Muthspiel Trio: Dancing Tears One
TTITLE9=Brad Mehldau: Bard
TTITLE10=Duke Ellington: Sunset And The Mocking Bird
TTITLE11=Jan Garbarek and The Hillard Ensemble: Parce Mihi Domine
TTITLE12=Miles Davis With Gil Evans and His Orchestra: Concierto D‘Aranjuez (Adagio)
EXTD=YEAR: 2011
EXTT0=
EXTT1=
EXTT2=
EXTT3=
EXTT4=
EXTT5=
EXTT6=
EXTT7=
EXTT8=
EXTT9=
EXTT10=
EXTT11=
EXTT12=
PLAYORDER=
